<svg width="27" height="32" viewBox="0 0 27 32" fill="none" xmlns="http://www.w3.org/2000/svg">
<path d="M15.4892 0C15.8981 0 16.2126 0.333529 16.2126 0.730588V5.84471C16.2126 8.75117 18.5871 11.1335 21.4648 11.1494C22.6599 11.1494 23.6034 11.1653 24.3267 11.1653L24.5946 11.1641C25.078 11.1604 25.7289 11.1494 26.2924 11.1494C26.6855 11.1494 27 11.4671 27 11.8641V24.6335C27 28.5723 23.8393 31.7647 19.9394 31.7647H7.42225C3.33372 31.7647 0 28.4135 0 24.2841V7.16294C0 3.22412 3.17647 0 7.09202 0H15.4892ZM17.1718 20.4882H8.61736C7.97263 20.4882 7.43797 21.0124 7.43797 21.6635C7.43797 22.3147 7.97263 22.8547 8.61736 22.8547H17.1718C17.8165 22.8547 18.3512 22.3147 18.3512 21.6635C18.3512 21.0124 17.8165 20.4882 17.1718 20.4882ZM13.9324 12.5471H8.61736C7.97263 12.5471 7.43797 13.0871 7.43797 13.7382C7.43797 14.3894 7.97263 14.9135 8.61736 14.9135H13.9324C14.5772 14.9135 15.1118 14.3894 15.1118 13.7382C15.1118 13.0871 14.5772 12.5471 13.9324 12.5471ZM18.504 1.43894C18.504 0.754412 19.3265 0.414529 19.7966 0.90847C21.4965 2.69365 24.467 5.81453 26.1276 7.55841C26.5867 8.03965 26.2502 8.83853 25.5882 8.84012C24.2956 8.84488 22.7718 8.84012 21.6758 8.829C19.9366 8.829 18.504 7.38212 18.504 5.62553V1.43894Z" fill="white"/>
</svg>
