<svg width="28" height="33" viewBox="0 0 28 33" fill="none" xmlns="http://www.w3.org/2000/svg">
<path d="M16.0629 0C16.4706 0 16.813 0.345882 16.813 0.757647V6.06118C16.813 9.07529 19.2592 11.5459 22.2598 11.5624C23.4828 11.5624 24.4776 11.5788 25.2114 11.5788L25.4892 11.5776C25.9906 11.5738 26.6655 11.5624 27.2499 11.5624C27.6738 11.5624 28 11.8918 28 12.3035V25.5459C28 29.6306 24.7059 32.9412 20.6616 32.9412H7.69715C3.44089 32.9412 0 29.4659 0 25.1835V7.42824C0 3.34353 3.27781 0 7.35469 0H16.0629ZM13.4048 11.1012C12.7362 11.1012 12.1817 11.6447 12.1817 12.3365V20.2753L9.58882 17.64C9.1159 17.1624 8.34945 17.1624 7.87653 17.64C7.40361 18.1176 7.40361 18.8918 7.87653 19.3859L12.5405 24.1129C12.6546 24.2282 12.7851 24.3106 12.9319 24.3765C13.0786 24.4424 13.2417 24.4753 13.4048 24.4753C13.5679 24.4753 13.7146 24.4424 13.8614 24.3765C14.0082 24.3106 14.1386 24.2282 14.2528 24.1129L18.933 19.3859C19.4059 18.8918 19.4059 18.1176 18.9167 17.64C18.4438 17.1624 17.6773 17.1624 17.2044 17.64L14.6115 20.2753V12.3365C14.6115 11.6447 14.0734 11.1012 13.4048 11.1012ZM19.1801 1.4924C19.1801 0.782518 20.033 0.430047 20.5189 0.942282C22.2834 2.79358 25.3639 6.03005 27.086 7.83852C27.5621 8.33758 27.2132 9.16605 26.525 9.16769C25.1861 9.17264 23.6059 9.16769 22.4693 9.15616C20.6657 9.15616 19.1801 7.65569 19.1801 5.83405V1.4924Z" fill="white"/>
</svg>
