<svg width="46" height="46" viewBox="0 0 46 46" fill="none" xmlns="http://www.w3.org/2000/svg">
<path d="M20.55 28.34C20.45 28.34 20.36 28.31 20.28 28.25C20.22 28.17 20.19 28.08 20.19 27.98V27.02C20.19 26.02 20.44 25.22 20.94 24.62C21.46 24 22.2 23.35 23.16 22.67C23.94 22.13 24.52 21.65 24.9 21.23C25.28 20.81 25.47 20.3 25.47 19.7C25.47 19.06 25.23 18.55 24.75 18.17C24.27 17.77 23.64 17.57 22.86 17.57C22.02 17.57 21.34 17.78 20.82 18.2C20.32 18.62 20.07 19.16 20.07 19.82V20.3C20.07 20.52 19.95 20.63 19.71 20.63L16.2 20.48C16.1 20.48 16.01 20.45 15.93 20.39C15.87 20.31 15.84 20.22 15.84 20.12V19.82C15.84 18.62 16.14 17.56 16.74 16.64C17.34 15.7 18.17 14.98 19.23 14.48C20.31 13.96 21.55 13.7 22.95 13.7C24.31 13.7 25.5 13.95 26.52 14.45C27.56 14.93 28.36 15.61 28.92 16.49C29.48 17.37 29.76 18.39 29.76 19.55C29.76 20.43 29.6 21.19 29.28 21.83C28.98 22.45 28.61 22.96 28.17 23.36C27.73 23.76 27.17 24.2 26.49 24.68C25.77 25.18 25.24 25.61 24.9 25.97C24.56 26.33 24.39 26.77 24.39 27.29V27.98C24.39 28.08 24.35 28.17 24.27 28.25C24.21 28.31 24.13 28.34 24.03 28.34H20.55ZM22.17 35.06C21.49 35.06 20.92 34.84 20.46 34.4C20.02 33.94 19.8 33.37 19.8 32.69C19.8 32.01 20.02 31.45 20.46 31.01C20.9 30.57 21.47 30.35 22.17 30.35C22.87 30.35 23.43 30.57 23.85 31.01C24.29 31.43 24.51 31.99 24.51 32.69C24.51 33.37 24.29 33.94 23.85 34.4C23.41 34.84 22.85 35.06 22.17 35.06Z" fill="#D0B216"/>
<circle cx="23" cy="23" r="21.5" stroke="#D0B216" stroke-width="3"/>
</svg>
