<svg width="28" height="30" viewBox="0 0 28 30" fill="none" xmlns="http://www.w3.org/2000/svg">
<path d="M9.77757 27.666V23.1599C9.77757 22.0096 10.7169 21.0771 11.8756 21.0771H16.1112C16.6676 21.0771 17.2013 21.2965 17.5947 21.6871C17.9882 22.0777 18.2092 22.6075 18.2092 23.1599V27.666C18.2057 28.1442 18.3946 28.604 18.734 28.9434C19.0734 29.2828 19.5352 29.4737 20.017 29.4737H22.9067C24.2563 29.4772 25.5518 28.9474 26.5074 28.0012C27.463 27.055 28 25.7703 28 24.4305V11.5933C28 10.511 27.5167 9.4844 26.6805 8.79004L16.8501 0.996018C15.1401 -0.370541 12.6901 -0.326418 11.0311 1.10081L1.42507 8.79004C0.549302 9.46393 0.0258665 10.4936 0 11.5933V24.4174C0 27.2099 2.28035 29.4737 5.09331 29.4737H7.91706C8.9176 29.4737 9.73073 28.6723 9.73798 27.6791L9.77757 27.666Z" fill="white"/>
</svg>
