<svg width="28" height="33" viewBox="0 0 28 33" fill="none" xmlns="http://www.w3.org/2000/svg">
<path d="M16.0629 0C16.4869 0 16.813 0.345882 16.813 0.757647V6.06118C16.813 9.07529 19.2755 11.5459 22.2598 11.5624C23.4991 11.5624 24.4776 11.5788 25.2277 11.5788C25.7333 11.5788 26.5649 11.5624 27.2662 11.5624C27.6738 11.5624 28 11.8918 28 12.3035V25.5459C28 29.6306 24.7222 32.9412 20.6616 32.9412H7.69715C3.45719 32.9412 0 29.4659 0 25.1835V7.42824C0 3.34353 3.29412 0 7.35469 0H16.0629ZM13.6983 12.7976C13.0297 12.7976 12.4752 13.3412 12.4752 14.0165V16.8659H9.67036C9.00175 16.8659 8.44729 17.4094 8.44729 18.1012C8.44729 18.7765 9.00175 19.32 9.67036 19.32H12.4752V22.1694C12.4752 22.8447 13.0297 23.3882 13.6983 23.3882C14.3669 23.3882 14.9051 22.8447 14.9051 22.1694V19.32H17.7263C18.3949 19.32 18.9493 18.7765 18.9493 18.1012C18.9493 17.4094 18.3949 16.8659 17.7263 16.8659H14.9051V14.0165C14.9051 13.3412 14.3669 12.7976 13.6983 12.7976ZM19.1876 1.49256C19.1876 0.782682 20.0405 0.430212 20.5281 0.942447C22.2909 2.79374 25.3714 6.03021 27.0935 7.83868C27.5696 8.33774 27.2207 9.16621 26.5341 9.16786C25.1936 9.1728 23.6134 9.16786 22.4768 9.15633C20.6732 9.15633 19.1876 7.65586 19.1876 5.83421V1.49256Z" fill="white"/>
</svg>
