<svg width="28" height="29" viewBox="0 0 28 29" fill="none" xmlns="http://www.w3.org/2000/svg">
<path d="M20.1939 13.1163L25.8909 13.1163C26.4967 13.1163 27.0015 13.5994 27.0015 14.2105C27.0015 14.8073 26.4967 15.3047 25.8909 15.3047L20.1939 15.3047L20.1934 22.0972C20.1934 25.5788 17.2585 28.4209 13.6633 28.4209H6.50216C2.92159 28.4209 0.00137752 25.5788 0.00137752 22.1114L0.00137752 6.30925C0.00137752 2.82765 2.92159 -0.000249022 6.53151 -0.000249022H13.678C17.2585 -0.000249022 20.1934 2.82766 20.1934 6.29504L20.1939 13.1163L11.0953 13.1161L13.4432 10.8424C13.8834 10.4161 13.8834 9.71978 13.4432 9.29347C13.2231 9.08031 12.9296 8.98083 12.6361 8.98083C12.3573 8.98083 12.0638 9.08031 11.8437 9.29347L7.55872 13.4287C7.3386 13.6277 7.22121 13.9119 7.22121 14.2103C7.22121 14.4945 7.3386 14.7787 7.55872 14.9777L11.8437 19.113C12.2839 19.5393 13.0029 19.5393 13.4432 19.113C13.8834 18.6867 13.8834 17.9903 13.4432 17.564L11.0953 15.3045L20.1939 15.3047L20.1939 13.1163Z" fill="white"/>
</svg>
