<svg width="27" height="29" viewBox="0 0 27 29" fill="none" xmlns="http://www.w3.org/2000/svg">
<path d="M14.5192 0C15.5939 0 16.5669 0.596842 17.1042 1.47789C17.3656 1.90421 17.5399 2.43 17.4963 2.98421C17.4673 3.41053 17.598 3.83684 17.8304 4.23474C18.571 5.44263 20.2121 5.89737 21.49 5.21526C22.9278 4.39105 24.7431 4.88842 25.5709 6.29526L26.5439 7.97211C27.3862 9.37895 26.9215 11.1837 25.4692 11.9937C24.2348 12.7184 23.7991 14.3242 24.5398 15.5463C24.7721 15.93 25.0335 16.2568 25.4402 16.4558C25.9485 16.7258 26.3406 17.1521 26.6165 17.5784C27.1538 18.4595 27.1103 19.5395 26.5875 20.4916L25.5709 22.1968C25.0335 23.1063 24.0315 23.6747 23.0004 23.6747C22.4921 23.6747 21.9257 23.5326 21.461 23.2484C21.0834 23.0068 20.6477 22.9216 20.183 22.9216C18.7453 22.9216 17.5399 24.1011 17.4963 25.5079C17.4963 27.1421 16.1603 28.4211 14.4902 28.4211H12.5151C10.8305 28.4211 9.49441 27.1421 9.49441 25.5079C9.46537 24.1011 8.26 22.9216 6.82226 22.9216C6.34302 22.9216 5.90734 23.0068 5.54428 23.2484C5.07956 23.5326 4.49865 23.6747 4.00489 23.6747C2.95926 23.6747 1.95721 23.1063 1.41987 22.1968L0.417818 20.4916C-0.119517 19.5679 -0.148562 18.4595 0.388773 17.5784C0.621133 17.1521 1.05681 16.7258 1.55058 16.4558C1.95721 16.2568 2.21861 15.93 2.4655 15.5463C3.19163 14.3242 2.75595 12.7184 1.52153 11.9937C0.0837989 11.1837 -0.380923 9.37895 0.446863 7.97211L1.41987 6.29526C2.26218 4.88842 4.06298 4.39105 5.51523 5.21526C6.7787 5.89737 8.41974 5.44263 9.16039 4.23474C9.39275 3.83684 9.52346 3.41053 9.49441 2.98421C9.46537 2.43 9.62512 1.90421 9.90104 1.47789C10.4384 0.596842 11.4114 0.0284211 12.4715 0H14.5192ZM13.5172 10.2032C11.2371 10.2032 9.39275 11.9937 9.39275 14.2247C9.39275 16.4558 11.2371 18.2321 13.5172 18.2321C15.7972 18.2321 17.598 16.4558 17.598 14.2247C17.598 11.9937 15.7972 10.2032 13.5172 10.2032Z" fill="white"/>
</svg>
